<svg id="Icons" height="512" viewBox="0 0 74 74" width="512" xmlns="http://www.w3.org/2000/svg"><path d="m61.205 63.793h-48.412a2.929 2.929 0 0 1 -2.616-1.558 3.017 3.017 0 0 1 .14-3.09 54.072 54.072 0 0 0 5.2-9.953 39.146 39.146 0 0 0 2.9-14.361v-5.531a18.815 18.815 0 0 1 17.683-19.069 18.591 18.591 0 0 1 19.486 18.562v6.038c0 9.916 4.4 18.7 8.1 24.313a3.013 3.013 0 0 1 .14 3.09 2.929 2.929 0 0 1 -2.621 1.559zm-24.194-51.583q-.409 0-.818.02a16.818 16.818 0 0 0 -15.779 17.07v5.534a41.141 41.141 0 0 1 -3.036 15.093 56.115 56.115 0 0 1 -5.39 10.319 1 1 0 0 0 -.052 1.042.951.951 0 0 0 .856.508h48.413a.952.952 0 0 0 .856-.507 1 1 0 0 0 -.052-1.042c-3.843-5.847-8.424-15-8.424-25.412v-6.042a16.59 16.59 0 0 0 -16.574-16.583z"/><path d="m59.253 54.414h-44.5a1 1 0 0 1 0-2h44.5a1 1 0 0 1 0 2z"/><path d="m37 72a9.217 9.217 0 0 1 -9.207-9.207 1 1 0 0 1 2 0 7.207 7.207 0 0 0 14.414 0 1 1 0 0 1 2 0 9.217 9.217 0 0 1 -9.207 9.207z"/><path d="m32.311 12.863a1 1 0 0 1 -1-1v-4.174a5.689 5.689 0 1 1 11.379 0v4.15a1 1 0 0 1 -2 0v-4.15a3.689 3.689 0 1 0 -7.379 0v4.174a1 1 0 0 1 -1 1z"/></svg>