<?xml version="1.0" encoding="iso-8859-1"?>
<!-- Generator: Adobe Illustrator 18.0.0, SVG Export Plug-In . SVG Version: 6.00 Build 0)  -->
<!DOCTYPE svg PUBLIC "-//W3C//DTD SVG 1.1//EN" "http://www.w3.org/Graphics/SVG/1.1/DTD/svg11.dtd">
<svg version="1.1" id="Capa_1" xmlns="http://www.w3.org/2000/svg" xmlns:xlink="http://www.w3.org/1999/xlink" x="0px" y="0px"
	 viewBox="0 0 254.149 254.149" style="enable-background:new 0 0 254.149 254.149;" xml:space="preserve">
<g>
	<path d="M251.513,97.962L211.18,57.629c-3.516-3.515-9.213-3.515-12.729,0c-3.515,3.515-3.515,9.213,0,12.728l24.97,24.969H101.374
		c-4.971,0-9,4.029-9,9s4.029,9,9,9h122.047l-24.97,24.97c-3.515,3.515-3.515,9.213,0,12.728c1.758,1.758,4.061,2.636,6.364,2.636
		s4.606-0.879,6.364-2.636l40.333-40.333C255.028,107.174,255.028,101.476,251.513,97.962z"/>
	<path d="M152.775,140.823H30.728l24.97-24.97c3.515-3.515,3.515-9.213,0-12.728c-3.516-3.516-9.213-3.515-12.729,0L2.636,143.46
		c-3.515,3.515-3.515,9.213,0,12.728l40.333,40.333c1.758,1.757,4.061,2.636,6.364,2.636s4.606-0.879,6.364-2.636
		c3.515-3.515,3.515-9.213,0-12.728l-24.97-24.969h122.047c4.971,0,9-4.029,9-9S157.745,140.823,152.775,140.823z"/>
</g>
<g>
</g>
<g>
</g>
<g>
</g>
<g>
</g>
<g>
</g>
<g>
</g>
<g>
</g>
<g>
</g>
<g>
</g>
<g>
</g>
<g>
</g>
<g>
</g>
<g>
</g>
<g>
</g>
<g>
</g>
</svg>
