<?xml version="1.0" encoding="iso-8859-1"?>
<!-- Generator: Adobe Illustrator 16.0.0, SVG Export Plug-In . SVG Version: 6.00 Build 0)  -->
<!DOCTYPE svg PUBLIC "-//W3C//DTD SVG 1.1//EN" "http://www.w3.org/Graphics/SVG/1.1/DTD/svg11.dtd">
<svg version="1.1" id="Capa_1" xmlns="http://www.w3.org/2000/svg" xmlns:xlink="http://www.w3.org/1999/xlink" x="0px" y="0px"
	 width="291.063px" height="291.064px" viewBox="0 0 291.063 291.064" style="enable-background:new 0 0 291.063 291.064;"
	 xml:space="preserve">
<g>
	<g>
		<path d="M26.512,204.255h18.292l106.48,67.761c12.354,7.855,22.369,2.361,22.369-12.282v-69.397
			c16.933-8.854,28.501-26.559,28.501-46.983c0-20.425-11.568-38.129-28.501-46.986V31.645c0-14.639-10.18-20.401-22.731-12.873
			L44.804,82.443H26.512C11.866,82.443,0,94.311,0,108.955v68.789C0,192.387,11.866,204.255,26.512,204.255z"/>
		<path d="M219.791,152.899c-0.818,11.185-4.039,21.758-9.569,31.426c-3.635,6.354-1.43,14.452,4.919,18.087
			c2.082,1.187,4.34,1.751,6.576,1.751c4.599,0,9.062-2.393,11.517-6.675c7.508-13.138,11.889-27.491,12.986-42.663
			c1.714-23.397-4.836-46.781-18.455-65.845c-4.256-5.96-12.536-7.332-18.491-3.081c-5.959,4.259-7.337,12.531-3.08,18.491
			C216.218,118.425,221.055,135.653,219.791,152.899z"/>
		<path d="M290.7,158c3.34-45.736-16.508-89.592-53.097-117.318c-5.841-4.433-14.146-3.27-18.568,2.556
			c-4.428,5.838-3.283,14.151,2.558,18.568c29.401,22.281,45.355,57.521,42.668,94.252c-2.02,27.636-14.375,53.159-34.787,71.867
			c-5.396,4.95-5.758,13.339-0.808,18.729c2.609,2.854,6.188,4.298,9.771,4.298c3.194,0,6.41-1.154,8.953-3.484
			C272.805,224.175,288.184,192.408,290.7,158z"/>
	</g>
</g>
<g>
</g>
<g>
</g>
<g>
</g>
<g>
</g>
<g>
</g>
<g>
</g>
<g>
</g>
<g>
</g>
<g>
</g>
<g>
</g>
<g>
</g>
<g>
</g>
<g>
</g>
<g>
</g>
<g>
</g>
</svg>
